<?xml version="1.0" encoding="UTF-8" standalone="no"?>
<!DOCTYPE svg PUBLIC "-//W3C//DTD SVG 1.1//EN" "http://www.w3.org/Graphics/SVG/1.1/DTD/svg11.dtd">
<svg width="100%" height="100%" viewBox="0 0 512 512" version="1.1" xmlns="http://www.w3.org/2000/svg" xmlns:xlink="http://www.w3.org/1999/xlink" xml:space="preserve" xmlns:serif="http://www.serif.com/" style="fill-rule:evenodd;clip-rule:evenodd;stroke-linejoin:round;stroke-miterlimit:2;">
    <g transform="matrix(3.14821,0,0,3.14821,-2942.91,-4998.81)">
        <g transform="matrix(1.08561,0,0,1.08561,-97.3858,-132.206)">
            <path d="M1036.1,1687C1036.1,1687 1057.69,1678.53 1066.96,1674.76C1067.46,1674.55 1068.83,1674.29 1070.22,1674.51C1071.31,1674.68 1072.45,1675.22 1072.92,1676.68C1072.94,1676.75 1072.96,1676.81 1072.98,1676.87C1072.98,1676.87 1074.05,1679.92 1071.11,1682.26C1071.11,1682.26 1029.38,1706.42 1029.38,1706.42C1029.38,1706.42 982.076,1710.31 982.076,1710.31C982.009,1710.32 981.942,1710.32 981.875,1710.33C981.875,1710.33 974.06,1711.62 968.51,1715.31C968.51,1715.32 958.248,1698.83 958.248,1698.83C958.248,1698.83 973.706,1684.56 973.706,1684.56C973.754,1684.52 973.801,1684.47 973.846,1684.42C973.846,1684.42 980.436,1677.67 992.247,1680.11C992.279,1680.12 992.31,1680.12 992.341,1680.13C992.341,1680.13 1002.35,1681.85 1010.62,1681.83C1012.2,1681.83 1013.49,1680.54 1013.49,1678.95C1013.49,1677.36 1012.2,1676.07 1010.61,1676.08C1003.15,1676.09 994.183,1674.6 993.377,1674.46C978.888,1671.49 970.565,1679.54 969.73,1680.4C969.738,1680.39 952.593,1696.21 952.593,1696.21C951.578,1697.15 951.372,1698.68 952.102,1699.85L965.354,1721.14C965.826,1721.9 966.625,1722.39 967.514,1722.48C968.404,1722.57 969.284,1722.24 969.896,1721.59C973.696,1717.54 981.594,1716.2 982.635,1716.04C982.643,1716.04 1030.5,1712.1 1030.5,1712.1C1030.93,1712.07 1031.34,1711.94 1031.71,1711.72L1074.16,1687.15C1074.26,1687.09 1074.36,1687.03 1074.45,1686.95C1080.79,1682.16 1078.69,1675.72 1078.38,1674.86C1077.09,1670.89 1074.09,1669.29 1071.11,1668.82C1068.41,1668.4 1065.76,1669.03 1064.79,1669.42C1055.54,1673.18 1034,1681.64 1034,1681.64C1032.52,1682.22 1031.79,1683.89 1032.37,1685.37C1032.95,1686.85 1034.62,1687.58 1036.1,1687Z"/>
        </g>
        <g transform="matrix(1.08561,0,0,1.08561,-98.0084,-132.206)">
            <path d="M1003.14,1695.99C1007.58,1695.92 1013.11,1695.96 1021.89,1695.22C1026.75,1694.81 1031.22,1694.22 1034.01,1692.69C1036.64,1691.24 1038.15,1689.1 1038.12,1685.93C1038.16,1685.27 1038.14,1682.86 1036.25,1680.52C1034.53,1678.38 1030.99,1675.96 1023.27,1676.14C1021.91,1676.17 1017.15,1676.14 1013.88,1676.11C1014.69,1668.3 1015.51,1648.35 1005.75,1632.1C1004.93,1630.73 1003.16,1630.29 1001.8,1631.11C1000.43,1631.93 999.992,1633.7 1000.81,1635.06C1012.2,1654 1007.78,1678.45 1007.78,1678.45C1007.63,1679.28 1007.85,1680.14 1008.39,1680.79C1008.93,1681.44 1009.73,1681.82 1010.58,1681.83C1010.58,1681.83 1021.23,1681.95 1023.41,1681.9C1031.9,1681.7 1032.37,1685.65 1032.37,1685.65C1032.37,1685.65 1032.77,1687.16 1030.25,1688.08C1027.95,1688.92 1024.78,1689.2 1021.4,1689.48C1012.81,1690.21 1007.4,1690.17 1003.05,1690.24C1001.47,1690.26 1000.2,1691.57 1000.22,1693.16C1000.24,1694.75 1001.55,1696.02 1003.14,1695.99Z"/>
        </g>
        <g transform="matrix(0.677,-0.416859,0.360892,0.586107,-225.44,1046.36)">
            <path d="M914.053,1595.72C912.546,1594.11 910.215,1594.11 908.708,1595.72C908.708,1595.72 889.677,1616.3 889.677,1641.31C889.677,1655.14 899.402,1666.38 911.381,1666.38C923.359,1666.38 933.085,1655.14 933.085,1641.31C933.085,1616.3 914.053,1595.72 914.053,1595.72ZM911.381,1605.57C916.055,1611.56 925.223,1625.34 925.223,1641.31C925.223,1650.13 919.021,1657.3 911.381,1657.3C903.741,1657.3 897.538,1650.13 897.538,1641.31C897.538,1625.34 906.706,1611.56 911.381,1605.57Z"/>
        </g>
        <g transform="matrix(0.620755,1.23831,-1.05596,0.529344,2219.23,-360.207)">
            <path d="M911.381,1599.05C911.381,1599.05 893.607,1617.92 893.607,1641C893.607,1652.5 901.571,1661.84 911.381,1661.84C921.19,1661.84 929.154,1652.5 929.154,1641C929.154,1617.92 911.381,1599.05 911.381,1599.05Z" style="fill:rgb(231,177,10);"/>
        </g>
        <g transform="matrix(0.762399,0,0,0.741105,229.745,442.217)">
            <path d="M1016,1658.85C1016,1658.85 1021.07,1647.59 1062.95,1627.13C1065,1626.14 1065.87,1623.62 1064.9,1621.52C1063.93,1619.41 1061.48,1618.52 1059.44,1619.52C1013.25,1642.07 1008.42,1655.64 1008.42,1655.64C1007.56,1657.8 1008.56,1660.26 1010.65,1661.14C1012.75,1662.03 1015.14,1661 1016,1658.85Z"/>
        </g>
    </g>
</svg>
