<?xml version="1.0" encoding="UTF-8" standalone="no"?>
<!DOCTYPE svg PUBLIC "-//W3C//DTD SVG 1.1//EN" "http://www.w3.org/Graphics/SVG/1.1/DTD/svg11.dtd">
<svg width="100%" height="100%" viewBox="0 0 250 250" version="1.1" xmlns="http://www.w3.org/2000/svg" xmlns:xlink="http://www.w3.org/1999/xlink" xml:space="preserve" xmlns:serif="http://www.serif.com/" style="fill-rule:evenodd;clip-rule:evenodd;stroke-linejoin:round;stroke-miterlimit:2;">
    <g transform="matrix(1,0,0,1,-7438.32,-1596.25)">
        <g transform="matrix(1,0,0,1,5445.83,28.4919)">
            <g transform="matrix(0.681289,0,0,0.681289,1957.76,1493.02)">
                <rect x="50.983" y="109.711" width="366.952" height="366.952" style="fill:none;"/>
            </g>
        </g>
        <g transform="matrix(1,0,0,1,5445.83,28.4919)">
            <g transform="matrix(1,0,0,1,5.8078,5.05683)">
                <g transform="matrix(0.961846,0,0,0.961846,68.8755,24.035)">
                    <path d="M2151.05,1764.98C2151.15,1764.86 2151.3,1764.79 2151.46,1764.78C2151.62,1764.78 2151.77,1764.84 2151.89,1764.95C2153.68,1766.66 2160.53,1773.19 2163.1,1775.64C2163.35,1775.89 2163.7,1776.02 2164.06,1776.01C2164.41,1776 2164.75,1775.85 2164.99,1775.59C2167.11,1773.3 2172.34,1767.67 2174.53,1765.32C2174.79,1765.04 2175.15,1764.88 2175.53,1764.87C2175.91,1764.86 2176.28,1765 2176.56,1765.26C2178.98,1767.59 2184.92,1773.3 2187.29,1775.57C2187.85,1776.11 2188.73,1776.14 2189.32,1775.63C2192.3,1773.08 2200.91,1765.73 2204.68,1762.5C2205.15,1762.1 2205.43,1761.52 2205.46,1760.91C2205.49,1760.29 2205.27,1759.68 2204.84,1759.24C2202.05,1756.34 2196.55,1750.62 2194.78,1748.78C2194.63,1748.62 2194.55,1748.42 2194.56,1748.2C2194.57,1747.99 2194.66,1747.79 2194.81,1747.65C2196.61,1745.98 2202.04,1740.93 2204.84,1738.33C2205.28,1737.92 2205.55,1737.34 2205.56,1736.73C2205.58,1736.12 2205.35,1735.53 2204.92,1735.09C2202.18,1732.28 2196.79,1726.73 2195.22,1725.12C2195.11,1725 2195.05,1724.85 2195.06,1724.69C2195.07,1724.53 2195.15,1724.38 2195.27,1724.28C2196.96,1722.94 2202.55,1718.5 2205.18,1716.4C2205.53,1716.13 2205.74,1715.71 2205.75,1715.27C2205.76,1714.83 2205.58,1714.4 2205.25,1714.11C2202.7,1711.81 2197.16,1706.83 2195.2,1705.07C2195.02,1704.9 2194.91,1704.67 2194.91,1704.43C2194.9,1704.18 2195,1703.94 2195.18,1703.77C2197.08,1701.93 2202.49,1696.69 2205.09,1694.17C2205.9,1693.39 2205.97,1692.11 2205.24,1691.25C2202.54,1688.04 2196.41,1680.76 2194.89,1678.96C2194.69,1678.73 2194.71,1678.38 2194.93,1678.18C2196.5,1676.72 2202.37,1671.23 2205.15,1668.63C2205.53,1668.29 2205.73,1667.79 2205.71,1667.28C2205.69,1666.77 2205.45,1666.3 2205.05,1665.98C2200.94,1662.72 2190.18,1654.16 2188.52,1652.84C2188.4,1652.74 2188.22,1652.75 2188.11,1652.86C2186.68,1654.24 2177.97,1662.63 2175.94,1664.58C2175.82,1664.69 2175.68,1664.75 2175.52,1664.75C2175.37,1664.74 2175.22,1664.67 2175.12,1664.56C2173.45,1662.77 2167.05,1655.88 2164.83,1653.49C2164.63,1653.28 2164.35,1653.15 2164.06,1653.14C2163.76,1653.13 2163.48,1653.24 2163.27,1653.44C2160.81,1655.79 2153.5,1662.76 2151.81,1664.38C2151.71,1664.47 2151.59,1664.52 2151.46,1664.51C2151.33,1664.51 2151.21,1664.45 2151.12,1664.36C2149.69,1662.76 2143.92,1656.35 2141.58,1653.74C2141.34,1653.47 2140.98,1653.31 2140.61,1653.33C2140.24,1653.34 2139.89,1653.51 2139.66,1653.8C2137.69,1656.28 2133.13,1662.02 2131.67,1663.86C2131.55,1664 2131.38,1664.09 2131.2,1664.11C2131.01,1664.12 2130.83,1664.05 2130.69,1663.92C2128.86,1662.14 2122.74,1656.18 2120.22,1653.74C2119.93,1653.46 2119.55,1653.31 2119.15,1653.32C2118.75,1653.33 2118.37,1653.5 2118.1,1653.79C2115.82,1656.23 2110.45,1662.02 2108.45,1664.17C2108.25,1664.38 2107.97,1664.51 2107.68,1664.52C2107.38,1664.53 2107.09,1664.42 2106.88,1664.21C2104.67,1662.08 2098.5,1656.14 2095.99,1653.72C2095.36,1653.11 2094.39,1653.07 2093.71,1653.61C2090.55,1656.12 2081.91,1663 2078.24,1665.91C2077.82,1666.25 2077.57,1666.75 2077.55,1667.29C2077.52,1667.82 2077.74,1668.34 2078.13,1668.71C2080.66,1671.07 2085.56,1675.65 2087.66,1677.61C2088.22,1678.14 2088.27,1679.01 2087.78,1679.59C2085.59,1682.2 2079.89,1688.96 2077.62,1691.65C2077.09,1692.29 2077.13,1693.23 2077.73,1693.8C2080.01,1696.01 2085.36,1701.19 2087.65,1703.4C2087.92,1703.67 2088.07,1704.04 2088.07,1704.42C2088.06,1704.81 2087.89,1705.17 2087.61,1705.42C2085.31,1707.49 2080.01,1712.25 2077.72,1714.31C2077.45,1714.56 2077.3,1714.91 2077.31,1715.28C2077.32,1715.64 2077.49,1715.98 2077.78,1716.21C2080.03,1718 2085.02,1721.97 2087.28,1723.76C2087.57,1723.99 2087.75,1724.34 2087.77,1724.71C2087.8,1725.08 2087.66,1725.45 2087.4,1725.72C2085.04,1728.14 2079.26,1734.08 2077.32,1736.08C2077.15,1736.26 2077.05,1736.5 2077.06,1736.74C2077.07,1736.99 2077.17,1737.22 2077.35,1737.39C2079.49,1739.37 2086,1745.43 2088.23,1747.5C2088.43,1747.68 2088.54,1747.94 2088.55,1748.21C2088.56,1748.48 2088.46,1748.74 2088.27,1748.94C2086.05,1751.25 2079.28,1758.29 2077.28,1760.37C2077.13,1760.52 2077.05,1760.73 2077.06,1760.94C2077.07,1761.15 2077.17,1761.35 2077.33,1761.49C2080.14,1763.9 2091.72,1773.86 2094.31,1776.09C2094.6,1776.34 2095.04,1776.33 2095.32,1776.06C2097.22,1774.25 2104.08,1767.7 2106.68,1765.22C2106.95,1764.97 2107.3,1764.83 2107.67,1764.84C2108.04,1764.85 2108.39,1765.01 2108.64,1765.28C2110.78,1767.59 2115.99,1773.2 2118.16,1775.53C2118.41,1775.8 2118.77,1775.96 2119.15,1775.97C2119.52,1775.98 2119.88,1775.84 2120.15,1775.58C2122.51,1773.29 2128.29,1767.67 2130.41,1765.6C2130.62,1765.4 2130.9,1765.3 2131.18,1765.32C2131.47,1765.33 2131.73,1765.47 2131.91,1765.69C2133.66,1767.89 2138.21,1773.62 2139.92,1775.77C2140.09,1775.98 2140.34,1776.11 2140.6,1776.12C2140.87,1776.12 2141.13,1776.02 2141.3,1775.82C2143.39,1773.49 2149.43,1766.78 2151.05,1764.98Z" style="fill:rgb(231,177,10);"/>
                </g>
                <g transform="matrix(0.961846,0,0,0.961846,37.8358,49.8392)">
                    <path d="M2151.72,1660.16L2161.81,1650.35C2162.43,1649.74 2163.28,1649.4 2164.16,1649.43C2165.03,1649.45 2165.86,1649.82 2166.45,1650.46L2175.64,1660.36L2186.05,1650.33C2187.22,1649.19 2189.05,1649.11 2190.33,1650.12L2208.66,1664.7C2209.4,1665.29 2209.85,1666.17 2209.88,1667.12C2209.92,1668.06 2209.55,1668.98 2208.86,1669.62C2208.86,1669.62 2199.02,1678.81 2199.02,1678.81L2209.02,1690.68C2210.12,1691.99 2210.02,1693.92 2208.79,1695.11L2199.26,1704.35L2208.75,1712.88C2209.46,1713.52 2209.85,1714.44 2209.83,1715.39C2209.8,1716.35 2209.35,1717.24 2208.6,1717.84C2208.6,1717.84 2199.62,1724.98 2199.62,1724.98L2208.87,1734.49C2209.48,1735.12 2209.81,1735.96 2209.79,1736.84C2209.76,1737.71 2209.39,1738.54 2208.75,1739.13L2198.86,1748.33L2208.83,1758.7C2209.45,1759.35 2209.78,1760.22 2209.73,1761.12C2209.69,1762.01 2209.28,1762.84 2208.6,1763.43L2190.39,1778.99C2189.12,1780.08 2187.23,1780.03 2186.02,1778.87C2186.02,1778.87 2175.64,1768.89 2175.64,1768.89L2166.45,1778.79C2165.86,1779.42 2165.04,1779.8 2164.17,1779.82C2163.3,1779.85 2162.46,1779.52 2161.83,1778.92L2151.64,1769.18L2143.01,1778.79C2142.37,1779.5 2141.45,1779.89 2140.49,1779.86C2139.53,1779.83 2138.64,1779.38 2138.05,1778.63C2138.05,1778.63 2130.91,1769.65 2130.91,1769.65L2121.4,1778.9C2120.77,1779.51 2119.92,1779.84 2119.05,1779.82C2118.17,1779.8 2117.35,1779.43 2116.75,1778.79L2107.55,1768.88L2097.07,1778.88C2095.86,1780.04 2093.97,1780.08 2092.71,1778.99L2074.6,1763.42C2073.92,1762.84 2073.51,1762 2073.47,1761.11C2073.43,1760.22 2073.75,1759.35 2074.37,1758.7C2074.37,1758.7 2084.35,1748.33 2084.35,1748.33L2074.45,1739.13C2073.81,1738.54 2073.44,1737.71 2073.42,1736.84C2073.39,1735.96 2073.73,1735.12 2074.34,1734.49L2083.59,1724.98L2074.61,1717.84C2073.86,1717.24 2073.41,1716.35 2073.38,1715.39C2073.35,1714.44 2073.74,1713.52 2074.45,1712.88L2083.95,1704.35L2074.41,1695.11C2073.18,1693.92 2073.09,1691.99 2074.19,1690.68L2084.19,1678.81L2074.35,1669.62C2073.66,1668.98 2073.28,1668.06 2073.32,1667.11C2073.36,1666.17 2073.81,1665.29 2074.55,1664.7L2092.91,1650.17C2094.19,1649.17 2096.01,1649.26 2097.18,1650.38C2097.18,1650.38 2107.56,1660.36 2107.56,1660.36L2116.75,1650.46C2117.35,1649.82 2118.17,1649.45 2119.05,1649.43C2119.92,1649.4 2120.77,1649.74 2121.4,1650.35L2130.91,1659.6L2138.05,1650.61C2138.64,1649.87 2139.53,1649.42 2140.49,1649.39C2141.45,1649.36 2142.37,1649.75 2143.01,1650.46L2151.72,1660.16ZM2154.14,1762.58C2154.14,1762.58 2163.94,1771.95 2163.94,1771.95L2173.13,1762.05C2173.73,1761.41 2174.55,1761.04 2175.42,1761.01C2176.29,1760.99 2177.14,1761.31 2177.77,1761.92C2177.77,1761.92 2188.4,1772.14 2188.4,1772.14C2188.4,1772.14 2201.76,1760.72 2201.76,1760.72L2191.88,1750.45C2191.28,1749.82 2190.95,1748.97 2190.97,1748.1C2191,1747.23 2191.37,1746.41 2192.01,1745.82C2192.01,1745.82 2201.89,1736.64 2201.89,1736.64L2192.45,1726.93C2191.82,1726.28 2191.48,1725.38 2191.54,1724.46C2191.6,1723.54 2192.04,1722.7 2192.76,1722.12L2201.55,1715.14L2192.32,1706.85C2191.65,1706.25 2191.26,1705.39 2191.24,1704.49C2191.23,1703.59 2191.59,1702.73 2192.23,1702.1C2192.23,1702.1 2202.09,1692.55 2202.09,1692.55L2192.06,1680.64C2190.94,1679.32 2191.06,1677.35 2192.32,1676.17C2192.32,1676.17 2201.67,1667.44 2201.67,1667.44L2188.51,1656.98L2177.77,1667.33C2177.14,1667.93 2176.3,1668.26 2175.42,1668.24C2174.55,1668.21 2173.73,1667.84 2173.13,1667.2C2173.13,1667.2 2163.95,1657.32 2163.95,1657.32L2154.25,1666.76C2154.04,1666.97 2153.8,1667.14 2153.53,1667.29L2153,1667.58C2151.68,1668.29 2150.04,1668.01 2149.03,1666.89C2149.03,1666.89 2140.74,1657.67 2140.74,1657.67L2133.76,1666.45C2133.19,1667.17 2132.34,1667.61 2131.42,1667.67C2130.51,1667.73 2129.61,1667.4 2128.95,1666.76L2119.25,1657.32L2110.07,1667.2C2109.48,1667.84 2108.65,1668.21 2107.78,1668.24C2106.91,1668.26 2106.07,1667.94 2105.44,1667.33C2105.44,1667.33 2094.72,1657.03 2094.72,1657.03L2081.54,1667.45L2090.88,1676.17C2092.14,1677.35 2092.26,1679.32 2091.15,1680.64L2081.11,1692.55L2090.97,1702.1C2091.62,1702.73 2091.97,1703.59 2091.96,1704.49C2091.94,1705.39 2091.55,1706.25 2090.88,1706.85C2090.88,1706.85 2081.66,1715.14 2081.66,1715.14L2090.44,1722.12C2091.16,1722.7 2091.6,1723.54 2091.66,1724.46C2091.72,1725.38 2091.39,1726.28 2090.75,1726.93L2081.31,1736.64L2091.19,1745.82C2091.83,1746.41 2092.2,1747.23 2092.23,1748.1C2092.25,1748.97 2091.93,1749.82 2091.32,1750.45L2081.44,1760.73L2094.71,1772.15L2105.45,1761.91C2106.07,1761.31 2106.92,1760.98 2107.79,1761.01C2108.66,1761.04 2109.48,1761.41 2110.07,1762.05C2110.07,1762.05 2119.25,1771.93 2119.25,1771.93L2128.95,1762.49C2129.61,1761.85 2130.51,1761.52 2131.42,1761.58C2132.34,1761.64 2133.19,1762.08 2133.76,1762.8L2140.74,1771.58L2149.03,1762.36C2150.23,1761.03 2152.28,1760.91 2153.62,1762.11L2154.07,1762.51C2154.09,1762.53 2154.12,1762.56 2154.14,1762.58Z"/>
                </g>
            </g>
        </g>
    </g>
</svg>
