<?xml version="1.0" encoding="UTF-8" standalone="no"?>
<!DOCTYPE svg PUBLIC "-//W3C//DTD SVG 1.1//EN" "http://www.w3.org/Graphics/SVG/1.1/DTD/svg11.dtd">
<svg width="100%" height="100%" viewBox="0 0 512 512" version="1.1" xmlns="http://www.w3.org/2000/svg" xmlns:xlink="http://www.w3.org/1999/xlink" xml:space="preserve" xmlns:serif="http://www.serif.com/" style="fill-rule:evenodd;clip-rule:evenodd;stroke-linejoin:round;stroke-miterlimit:2;">
    <g transform="matrix(2.89484,0,0,2.89484,-3732.68,-1315.31)">
        <g transform="matrix(0.470221,0,0,0.470221,1220.83,410.421)">
            <path d="M459.99,313.606C459.783,249.325 414.328,196.647 349.995,196.647C285.662,196.647 236.759,248.885 236.549,313.167L269.184,313.712L344.398,301.581L425.329,314.007L459.99,313.606Z" style="fill:rgb(231,177,10);fill-rule:nonzero;"/>
        </g>
        <g transform="matrix(0.470221,0,0,0.470221,1220.83,410.421)">
            <path d="M350,154.98C353.094,154.98 355.602,152.476 355.602,149.378L355.602,142.777C355.602,139.683 353.098,137.175 350,137.175C346.906,137.175 344.398,139.679 344.398,142.777L344.398,149.378C344.398,152.476 346.906,154.98 350,154.98Z" style="fill-rule:nonzero;"/>
        </g>
        <g transform="matrix(0.470221,0,0,0.470221,1220.83,410.421)">
            <path d="M416.95,169.82C417.716,170.175 418.52,170.343 419.306,170.343C421.415,170.343 423.438,169.144 424.388,167.105L427.177,161.117C428.485,158.316 427.27,154.988 424.466,153.679C421.649,152.367 418.325,153.593 417.028,156.39L414.239,162.379C412.931,165.183 414.145,168.511 416.95,169.82L416.95,169.82Z" style="fill-rule:nonzero;"/>
        </g>
        <g transform="matrix(0.470221,0,0,0.470221,1220.83,410.421)">
            <path d="M475.68,213.53C476.95,213.53 478.227,213.096 479.278,212.218L484.332,207.968C486.7,205.975 487.008,202.444 485.016,200.077C483.02,197.71 479.493,197.401 477.125,199.393L472.071,203.643C469.703,205.636 469.395,209.167 471.387,211.534C472.5,212.85 474.086,213.53 475.68,213.53L475.68,213.53Z" style="fill-rule:nonzero;"/>
        </g>
        <g transform="matrix(0.470221,0,0,0.470221,1220.83,410.421)">
            <path d="M508.51,276.47C508.99,276.47 509.483,276.411 509.963,276.279L516.338,274.568C519.33,273.763 521.1,270.697 520.299,267.708C519.494,264.716 516.393,262.95 513.44,263.747L507.065,265.458C504.072,266.263 502.303,269.329 503.104,272.318C503.779,274.822 506.037,276.47 508.51,276.47L508.51,276.47Z" style="fill-rule:nonzero;"/>
        </g>
        <g transform="matrix(0.470221,0,0,0.470221,1220.83,410.421)">
            <path d="M275.61,167.1C276.555,169.139 278.579,170.338 280.692,170.338C281.481,170.338 282.29,170.17 283.048,169.815C285.852,168.506 287.067,165.178 285.758,162.377L282.969,156.389C281.669,153.588 278.348,152.366 275.532,153.678C272.727,154.987 271.512,158.315 272.821,161.116L275.61,167.1Z" style="fill-rule:nonzero;"/>
        </g>
        <g transform="matrix(0.470221,0,0,0.470221,1220.83,410.421)">
            <path d="M220.72,212.21C221.771,213.089 223.048,213.523 224.318,213.523C225.915,213.523 227.501,212.843 228.611,211.526C230.603,209.159 230.294,205.624 227.927,203.636L222.872,199.386C220.505,197.401 216.978,197.706 214.982,200.069C212.99,202.437 213.298,205.972 215.665,207.96L220.72,212.21Z" style="fill-rule:nonzero;"/>
        </g>
        <g transform="matrix(0.470221,0,0,0.470221,1220.83,410.421)">
            <path d="M183.66,274.56L190.035,276.271C190.515,276.404 191.008,276.462 191.488,276.462C193.961,276.462 196.219,274.818 196.89,272.31C197.695,269.326 195.922,266.255 192.93,265.451L186.555,263.74C183.601,262.947 180.5,264.708 179.695,267.701C178.898,270.689 180.668,273.759 183.66,274.56L183.66,274.56Z" style="fill-rule:nonzero;"/>
        </g>
        <g transform="matrix(1,0,0,1,0.112619,0.236579)">
            <path d="M1293.08,554.209C1293.08,554.209 1303.4,554.423 1310.57,557.134C1312.52,558.082 1332.33,567.153 1360.58,558.857C1360.6,558.849 1360.63,558.841 1360.65,558.833C1360.65,558.833 1386.19,550.575 1408.74,558.807C1410.17,559.417 1427.04,566.318 1447.53,560.574C1447.58,560.561 1447.63,560.546 1447.67,560.531L1462.97,555.447C1464.61,554.903 1465.49,553.133 1464.95,551.496C1464.4,549.86 1462.63,548.972 1461,549.516L1445.78,554.576C1426.71,559.892 1411.18,553.05 1411.18,553.05C1411.11,553.022 1411.05,552.996 1410.98,552.973C1387.07,544.194 1360.02,552.481 1358.78,552.87C1331.77,560.795 1313.25,551.486 1313.25,551.486C1313.15,551.436 1313.05,551.392 1312.95,551.353C1304.92,548.262 1293.23,547.961 1293.23,547.961C1291.51,547.92 1290.07,549.288 1290.03,551.012C1289.99,552.736 1291.36,554.169 1293.08,554.209Z"/>
        </g>
        <g transform="matrix(1,0,0,1,0.112619,23.584)">
            <path d="M1293.08,554.209C1293.08,554.209 1303.4,554.423 1310.57,557.134C1312.52,558.082 1332.33,567.153 1360.58,558.857C1360.6,558.849 1360.63,558.841 1360.65,558.833C1360.65,558.833 1386.19,550.575 1408.74,558.807C1410.17,559.417 1427.04,566.318 1447.53,560.574C1447.58,560.561 1447.63,560.546 1447.67,560.531L1462.97,555.447C1464.61,554.903 1465.49,553.133 1464.95,551.496C1464.4,549.86 1462.63,548.972 1461,549.516L1445.78,554.576C1426.71,559.892 1411.18,553.05 1411.18,553.05C1411.11,553.022 1411.05,552.996 1410.98,552.973C1387.07,544.194 1360.02,552.481 1358.78,552.87C1331.77,560.795 1313.25,551.486 1313.25,551.486C1313.15,551.436 1313.05,551.392 1312.95,551.353C1304.92,548.262 1293.23,547.961 1293.23,547.961C1291.51,547.92 1290.07,549.288 1290.03,551.012C1289.99,552.736 1291.36,554.169 1293.08,554.209Z"/>
        </g>
        <g transform="matrix(1,0,0,1,0.112619,47.8295)">
            <path d="M1293.08,554.209C1293.08,554.209 1303.4,554.423 1310.57,557.134C1312.52,558.082 1332.33,567.153 1360.58,558.857C1360.6,558.849 1360.63,558.841 1360.65,558.833C1360.65,558.833 1386.19,550.575 1408.74,558.807C1410.17,559.417 1427.04,566.318 1447.53,560.574C1447.58,560.561 1447.63,560.546 1447.67,560.531L1462.97,555.447C1464.61,554.903 1465.49,553.133 1464.95,551.496C1464.4,549.86 1462.63,548.972 1461,549.516L1445.78,554.576C1426.71,559.892 1411.18,553.05 1411.18,553.05C1411.11,553.022 1411.05,552.996 1410.98,552.973C1387.07,544.194 1360.02,552.481 1358.78,552.87C1331.77,560.795 1313.25,551.486 1313.25,551.486C1313.15,551.436 1313.05,551.392 1312.95,551.353C1304.92,548.262 1293.23,547.961 1293.23,547.961C1291.51,547.92 1290.07,549.288 1290.03,551.012C1289.99,552.736 1291.36,554.169 1293.08,554.209Z"/>
        </g>
    </g>
</svg>
